<svg width="160" height="34" viewBox="0 0 160 34" fill="none" xmlns="http://www.w3.org/2000/svg">
<path fill-rule="evenodd" clip-rule="evenodd" d="M0 33.6478H13.8039L21.5686 30.7361L18.6569 19.3047L9.70588 20.2753L0 33.6478Z" fill="#0265B4"/>
<path fill-rule="evenodd" clip-rule="evenodd" d="M13.8041 33.6481C13.8041 33.6481 18.1679 31.3456 18.9755 27.2665C19.7831 23.1873 15.7973 20.2756 9.70605 20.2756C9.70605 20.1677 15.0535 12.7266 15.0535 12.7266L28.0394 13.1038L25.1593 28.3119L19.7831 32.512L13.8041 33.6481Z" fill="#002868"/>
<path fill-rule="evenodd" clip-rule="evenodd" d="M0 15.961C4.21154 9.72797 6.57278 6.23334 10.7843 0.000275343C10.7843 0.000275343 11.0487 0.00280308 11.6471 0.000263289C15.8745 -0.0176817 33 0.820209 33 15.8692C33 33.0482 13.8039 33.6473 13.8039 33.6473C13.8039 33.6473 21.82 32.1124 21.82 24.4951C21.82 16.8779 14.5802 15.961 9.92157 15.961C5.26291 15.961 0 15.961 0 15.961Z" fill="#3793EF"/>
<path d="M50.0556 8.008H56.0796C57.1836 8.008 58.2956 8.152 59.4156 8.44C60.5356 8.728 61.5436 9.208 62.4396 9.88C63.3356 10.536 64.0636 11.408 64.6236 12.496C65.1836 13.568 65.4636 14.904 65.4636 16.504C65.4636 17.992 65.1836 19.272 64.6236 20.344C64.0636 21.416 63.3356 22.296 62.4396 22.984C61.5436 23.672 60.5356 24.184 59.4156 24.52C58.2956 24.84 57.1836 25 56.0796 25H50.0556V8.008ZM55.5996 22.36C56.3836 22.36 57.1676 22.272 57.9516 22.096C58.7356 21.904 59.4396 21.592 60.0636 21.16C60.7036 20.712 61.2236 20.112 61.6236 19.36C62.0236 18.608 62.2236 17.656 62.2236 16.504C62.2236 15.288 62.0236 14.296 61.6236 13.528C61.2236 12.76 60.7036 12.16 60.0636 11.728C59.4396 11.296 58.7356 11 57.9516 10.84C57.1676 10.68 56.3836 10.6 55.5996 10.6H53.0796V22.36H55.5996ZM76.3517 18.088C76.3517 17.72 76.2957 17.368 76.1837 17.032C76.0877 16.696 75.9277 16.4 75.7037 16.144C75.4797 15.888 75.1917 15.688 74.8397 15.544C74.5037 15.384 74.1037 15.304 73.6397 15.304C72.7757 15.304 72.0397 15.568 71.4317 16.096C70.8397 16.608 70.5117 17.272 70.4477 18.088H76.3517ZM79.2317 19.384C79.2317 19.512 79.2317 19.64 79.2317 19.768C79.2317 19.896 79.2237 20.024 79.2077 20.152H70.4477C70.4797 20.568 70.5837 20.952 70.7597 21.304C70.9517 21.64 71.1997 21.936 71.5037 22.192C71.8077 22.432 72.1517 22.624 72.5357 22.768C72.9197 22.912 73.3197 22.984 73.7357 22.984C74.4557 22.984 75.0637 22.856 75.5597 22.6C76.0557 22.328 76.4637 21.96 76.7837 21.496L78.7037 23.032C77.5677 24.568 75.9197 25.336 73.7597 25.336C72.8637 25.336 72.0397 25.2 71.2877 24.928C70.5357 24.64 69.8797 24.24 69.3197 23.728C68.7757 23.216 68.3437 22.592 68.0237 21.856C67.7197 21.104 67.5677 20.256 67.5677 19.312C67.5677 18.384 67.7197 17.544 68.0237 16.792C68.3437 16.024 68.7757 15.376 69.3197 14.848C69.8637 14.304 70.5037 13.888 71.2397 13.6C71.9917 13.296 72.7997 13.144 73.6637 13.144C74.4637 13.144 75.1997 13.28 75.8717 13.552C76.5597 13.808 77.1517 14.2 77.6477 14.728C78.1437 15.24 78.5277 15.888 78.7997 16.672C79.0877 17.44 79.2317 18.344 79.2317 19.384ZM90.133 18.088C90.133 17.72 90.077 17.368 89.965 17.032C89.869 16.696 89.709 16.4 89.485 16.144C89.261 15.888 88.973 15.688 88.621 15.544C88.285 15.384 87.885 15.304 87.421 15.304C86.557 15.304 85.821 15.568 85.213 16.096C84.621 16.608 84.293 17.272 84.229 18.088H90.133ZM93.013 19.384C93.013 19.512 93.013 19.64 93.013 19.768C93.013 19.896 93.005 20.024 92.989 20.152H84.229C84.261 20.568 84.365 20.952 84.541 21.304C84.733 21.64 84.981 21.936 85.285 22.192C85.589 22.432 85.933 22.624 86.317 22.768C86.701 22.912 87.101 22.984 87.517 22.984C88.237 22.984 88.845 22.856 89.341 22.6C89.837 22.328 90.245 21.96 90.565 21.496L92.485 23.032C91.349 24.568 89.701 25.336 87.541 25.336C86.645 25.336 85.821 25.2 85.069 24.928C84.317 24.64 83.661 24.24 83.101 23.728C82.557 23.216 82.125 22.592 81.805 21.856C81.501 21.104 81.349 20.256 81.349 19.312C81.349 18.384 81.501 17.544 81.805 16.792C82.125 16.024 82.557 15.376 83.101 14.848C83.645 14.304 84.285 13.888 85.021 13.6C85.773 13.296 86.581 13.144 87.445 13.144C88.245 13.144 88.981 13.28 89.653 13.552C90.341 13.808 90.933 14.2 91.429 14.728C91.925 15.24 92.309 15.888 92.581 16.672C92.869 17.44 93.013 18.344 93.013 19.384ZM98.5622 13.48V15.088H98.6342C98.7782 14.864 98.9622 14.64 99.1862 14.416C99.4262 14.176 99.7142 13.968 100.05 13.792C100.386 13.6 100.762 13.448 101.178 13.336C101.61 13.208 102.09 13.144 102.618 13.144C103.434 13.144 104.186 13.304 104.874 13.624C105.562 13.928 106.154 14.352 106.65 14.896C107.146 15.44 107.53 16.08 107.802 16.816C108.074 17.552 108.21 18.344 108.21 19.192C108.21 20.04 108.074 20.84 107.802 21.592C107.546 22.328 107.17 22.976 106.674 23.536C106.194 24.08 105.602 24.52 104.898 24.856C104.21 25.176 103.426 25.336 102.546 25.336C101.73 25.336 100.978 25.168 100.29 24.832C99.6182 24.496 99.0982 24.04 98.7302 23.464H98.6822V30.76H95.8022V13.48H98.5622ZM105.282 19.192C105.282 18.744 105.21 18.304 105.066 17.872C104.938 17.424 104.738 17.024 104.466 16.672C104.194 16.32 103.85 16.04 103.434 15.832C103.018 15.608 102.53 15.496 101.97 15.496C101.442 15.496 100.97 15.608 100.554 15.832C100.138 16.056 99.7782 16.344 99.4742 16.696C99.1862 17.048 98.9622 17.448 98.8022 17.896C98.6582 18.344 98.5862 18.792 98.5862 19.24C98.5862 19.688 98.6582 20.136 98.8022 20.584C98.9622 21.016 99.1862 21.408 99.4742 21.76C99.7782 22.112 100.138 22.4 100.554 22.624C100.97 22.832 101.442 22.936 101.97 22.936C102.53 22.936 103.018 22.824 103.434 22.6C103.85 22.376 104.194 22.088 104.466 21.736C104.738 21.384 104.938 20.984 105.066 20.536C105.21 20.088 105.282 19.64 105.282 19.192ZM110.99 13.48H113.726V15.328H113.774C114.03 14.752 114.47 14.248 115.094 13.816C115.734 13.368 116.486 13.144 117.35 13.144C118.102 13.144 118.742 13.28 119.27 13.552C119.814 13.808 120.254 14.152 120.59 14.584C120.942 15.016 121.198 15.512 121.358 16.072C121.518 16.632 121.598 17.208 121.598 17.8V25H118.718V18.616C118.718 18.28 118.694 17.928 118.646 17.56C118.598 17.192 118.494 16.864 118.334 16.576C118.174 16.272 117.95 16.024 117.662 15.832C117.39 15.64 117.022 15.544 116.558 15.544C116.094 15.544 115.694 15.64 115.358 15.832C115.022 16.008 114.742 16.24 114.518 16.528C114.31 16.816 114.15 17.152 114.038 17.536C113.926 17.904 113.87 18.28 113.87 18.664V25H110.99V13.48ZM124.286 19.192C124.286 18.28 124.446 17.456 124.766 16.72C125.102 15.968 125.55 15.328 126.11 14.8C126.67 14.272 127.334 13.864 128.102 13.576C128.87 13.288 129.686 13.144 130.55 13.144C131.414 13.144 132.23 13.288 132.998 13.576C133.766 13.864 134.43 14.272 134.99 14.8C135.55 15.328 135.99 15.968 136.31 16.72C136.646 17.456 136.814 18.28 136.814 19.192C136.814 20.104 136.646 20.936 136.31 21.688C135.99 22.44 135.55 23.088 134.99 23.632C134.43 24.16 133.766 24.576 132.998 24.88C132.23 25.184 131.414 25.336 130.55 25.336C129.686 25.336 128.87 25.184 128.102 24.88C127.334 24.576 126.67 24.16 126.11 23.632C125.55 23.088 125.102 22.44 124.766 21.688C124.446 20.936 124.286 20.104 124.286 19.192ZM127.214 19.192C127.214 19.64 127.278 20.088 127.406 20.536C127.55 20.984 127.758 21.384 128.03 21.736C128.302 22.088 128.646 22.376 129.062 22.6C129.478 22.824 129.974 22.936 130.55 22.936C131.126 22.936 131.622 22.824 132.038 22.6C132.454 22.376 132.798 22.088 133.07 21.736C133.342 21.384 133.542 20.984 133.67 20.536C133.814 20.088 133.886 19.64 133.886 19.192C133.886 18.744 133.814 18.304 133.67 17.872C133.542 17.424 133.342 17.024 133.07 16.672C132.798 16.32 132.454 16.04 132.038 15.832C131.622 15.608 131.126 15.496 130.55 15.496C129.974 15.496 129.478 15.608 129.062 15.832C128.646 16.04 128.302 16.32 128.03 16.672C127.758 17.024 127.55 17.424 127.406 17.872C127.278 18.304 127.214 18.744 127.214 19.192ZM137.951 15.784V13.48H139.967V10.144H142.799V13.48H145.679V15.784H142.799V21.136C142.799 21.648 142.887 22.072 143.063 22.408C143.255 22.744 143.671 22.912 144.311 22.912C144.503 22.912 144.711 22.896 144.935 22.864C145.159 22.816 145.359 22.752 145.535 22.672L145.631 24.928C145.375 25.024 145.071 25.096 144.719 25.144C144.367 25.208 144.031 25.24 143.711 25.24C142.943 25.24 142.319 25.136 141.839 24.928C141.359 24.704 140.975 24.408 140.687 24.04C140.415 23.656 140.223 23.224 140.111 22.744C140.015 22.248 139.967 21.72 139.967 21.16V15.784H137.951ZM155.875 18.088C155.875 17.72 155.819 17.368 155.707 17.032C155.611 16.696 155.451 16.4 155.227 16.144C155.003 15.888 154.715 15.688 154.363 15.544C154.027 15.384 153.627 15.304 153.163 15.304C152.299 15.304 151.563 15.568 150.955 16.096C150.363 16.608 150.035 17.272 149.971 18.088H155.875ZM158.755 19.384C158.755 19.512 158.755 19.64 158.755 19.768C158.755 19.896 158.747 20.024 158.731 20.152H149.971C150.003 20.568 150.107 20.952 150.283 21.304C150.475 21.64 150.723 21.936 151.027 22.192C151.331 22.432 151.675 22.624 152.059 22.768C152.443 22.912 152.843 22.984 153.259 22.984C153.979 22.984 154.587 22.856 155.083 22.6C155.579 22.328 155.987 21.96 156.307 21.496L158.227 23.032C157.091 24.568 155.443 25.336 153.283 25.336C152.387 25.336 151.563 25.2 150.811 24.928C150.059 24.64 149.403 24.24 148.843 23.728C148.299 23.216 147.867 22.592 147.547 21.856C147.243 21.104 147.091 20.256 147.091 19.312C147.091 18.384 147.243 17.544 147.547 16.792C147.867 16.024 148.299 15.376 148.843 14.848C149.387 14.304 150.027 13.888 150.763 13.6C151.515 13.296 152.323 13.144 153.187 13.144C153.987 13.144 154.723 13.28 155.395 13.552C156.083 13.808 156.675 14.2 157.171 14.728C157.667 15.24 158.051 15.888 158.323 16.672C158.611 17.44 158.755 18.344 158.755 19.384Z" fill="#1B3249"/>
</svg>
